<?xml version="1.0" encoding="UTF-8"?>
<svg width="20px" height="20px" viewBox="0 0 20 20" version="1.1" xmlns="http://www.w3.org/2000/svg" xmlns:xlink="http://www.w3.org/1999/xlink">
    <!-- Generator: Sketch 51.3 (57544) - http://www.bohemiancoding.com/sketch -->
    <title>woman_icon</title>
    <desc>Created with Sketch.</desc>
    <defs></defs>
    <g id="页面" stroke="none" stroke-width="1" fill="none" fill-rule="evenodd">
        <g id="3_22p0-报告展示-人群画像" transform="translate(-413.000000, -183.000000)" fill-rule="nonzero">
            <g id="分组-13" transform="translate(229.000000, 182.000000)">
                <g id="分组-9" transform="translate(183.000000, 0.000000)">
                    <g id="woman_icon">
                        <rect id="Rectangle-path" fill="#000000" opacity="0" x="0" y="0" width="22" height="22"></rect>
                        <path d="M12.8489058,4.05835914 C9.86779254,4.05835914 7.4406915,6.48106325 7.4406915,9.46217647 C7.4406915,12.4388928 9.86559406,14.8637953 12.8489058,14.8637953 C15.8322174,14.8637953 18.2593185,12.4410912 18.2593185,9.46217647 C18.2615169,6.48106325 15.8322175,4.05835914 12.8489058,4.05835914 Z M12.8489058,17.1677825 C10.9472369,17.1677825 9.20825421,16.4752673 7.86059757,15.3320675 L6.75037475,16.4422904 L8.57289898,18.2648146 L6.94164086,19.8938743 L5.11911662,18.07135 L3.00419707,20.1818727 L1.37293894,18.552813 L3.48566004,16.4422904 L1.55541121,14.51424 L3.18666934,12.8851804 L5.11691817,14.8132307 L6.34365946,13.5886879 C5.58079347,12.3927251 5.1323074,10.9791146 5.1323074,9.46217647 C5.1323074,5.21255122 8.59268515,1.75657041 12.8489058,1.75657041 C17.1051264,1.75657041 20.5677026,5.21255122 20.5677026,9.46217647 C20.5677026,13.7096033 17.1051264,17.1677825 12.8489058,17.1677825 Z" id="Shape" fill="#FFCD61"></path>
                    </g>
                </g>
            </g>
        </g>
    </g>
</svg>