<?xml version="1.0" encoding="UTF-8"?>
<svg width="20px" height="19px" viewBox="0 0 20 19" version="1.1" xmlns="http://www.w3.org/2000/svg" xmlns:xlink="http://www.w3.org/1999/xlink">
    <!-- Generator: Sketch 51.3 (57544) - http://www.bohemiancoding.com/sketch -->
    <title>male_icon</title>
    <desc>Created with Sketch.</desc>
    <defs></defs>
    <g id="页面" stroke="none" stroke-width="1" fill="none" fill-rule="evenodd">
        <g id="3_22p0-报告展示-人群画像" transform="translate(-301.000000, -185.000000)" fill="#3D6EFF" fill-rule="nonzero">
            <g id="分组-13" transform="translate(229.000000, 182.000000)">
                <g id="分组-10" transform="translate(0.000000, 2.000000)">
                    <g id="male_icon" transform="translate(72.000000, 1.000000)">
                        <path d="M8.01724504,5.24861167 C4.91998455,5.24861167 2.39832114,7.76570685 2.39832114,10.8629673 C2.39832114,13.9556596 4.91770042,16.4750389 8.01724504,16.4750389 C11.1167896,16.4750389 13.6384531,13.9579437 13.6384531,10.8629673 C13.6407372,7.76570685 11.1167897,5.24861167 8.01724504,5.24861167 Z M13.189866,4.74936189 L15.8649051,2.07432283 L10.4761905,2.07432283 L10.4761905,0 L19.3715994,0 L19.3730134,0.0353497321 L19.4027072,0.0353497321 L19.4027072,8.93075871 L17.3297984,8.93075871 L17.3297984,3.5448721 L14.5913648,6.28230657 C15.5019951,7.58092851 16.0367743,9.16066054 16.0367743,10.8629673 C16.0367742,15.2758783 12.4392925,18.8687918 8.01724504,18.8687918 C6.04148522,18.8687918 4.23474993,18.1492955 2.83458719,16.9615555 C2.27540447,16.4692468 1.75005794,15.8654789 1.25854759,15.150252 C0.521282068,14.0774115 0,12.439007 0,10.8629673 C0,6.44777228 3.59519766,2.85714286 8.01724507,2.85714286 C9.98665025,2.85714286 11.7925062,3.5693297 13.189866,4.74936189 Z" id="Combined-Shape"></path>
                    </g>
                </g>
            </g>
        </g>
    </g>
</svg>