<?xml version="1.0" encoding="UTF-8"?>
<svg width="22px" height="28px" viewBox="0 0 22 28" version="1.1" xmlns="http://www.w3.org/2000/svg" xmlns:xlink="http://www.w3.org/1999/xlink">
    <!-- Generator: Sketch 52.3 (67297) - http://www.bohemiancoding.com/sketch -->
    <desc>Created with Sketch.</desc>
    <g id="交通设施_坐标" stroke="none" stroke-width="1" fill="none" class="marker-icon" fill-rule="evenodd">
        <g id="Group-6" fill-rule="nonzero">
            <ellipse id="Oval-5" fill-opacity="0.203577899" fill="#000000" cx="11" cy="26.8135593" rx="3.82608696" ry="1.18644068"></ellipse>
            <ellipse id="Oval-5" fill-opacity="0.203577899" fill="#000000" cx="11" cy="26.8135593" rx="2.39130435" ry="1"></ellipse>
            <path d="M11.0050299,25.3436266 C11.108074,25.121409 11.2291861,24.88616 11.3704901,24.6392325 C12.3288758,22.9644614 13.9421948,21.3108155 16.3680296,19.780924 C16.4959055,19.7056348 16.6223962,19.6275 16.7613971,19.5378694 C16.8342058,19.494059 16.9000328,19.450161 16.9749507,19.3950743 C19.7882784,17.4688246 21.5,14.3114196 21.5,10.8687042 C21.5,5.14359667 16.8003017,0.5 11.0000472,0.5 C5.19971225,0.5 0.5,5.14358291 0.5,10.8687042 C0.5,14.6812691 2.60199103,18.1295095 5.95168467,19.963324 C8.23791376,21.4405917 9.76694442,23.0531959 10.6752294,24.6909467 C10.8015878,24.9187866 10.9109726,25.1367733 11.0050299,25.3436266 Z" id="Shape" stroke="#FFFFFF" class="svg-fill-color"></path>
        </g>
        <g id="Graphic" transform="translate(5.000000, 5.000000)" fill="#FFFFFF" fill-rule="nonzero">
            <path d="M2.82257143,10.248 L0.642857143,10.248 L0.642857143,0.292285714 C0.975428571,0.288 1.19828571,0.285428571 1.314,0.285428571 L11.0425714,0.285428571 C11.1694286,0.285428571 11.3931429,0.288 11.7137143,0.292285714 L11.7137143,10.248 L9.61542857,10.248 L11.0897143,11.5354286 C11.1205714,11.5637143 11.1317143,11.6074286 11.1171429,11.6468571 C11.1025714,11.6862857 11.0657143,11.7128571 11.0237143,11.7145714 L9.56057143,11.7145714 L8.01771429,10.248 L4.45371429,10.248 L2.91171429,11.7145714 L1.41514286,11.7145714 C1.38085714,11.7445714 1.33028571,11.7488571 1.29171429,11.724 C1.25314286,11.6991429 1.23514286,11.652 1.24885714,11.6074286 C1.26257143,11.5637143 1.30371429,11.5345714 1.34914286,11.5354286 L2.82257143,10.248 Z M10.7082857,4.70142857 L10.7082857,1.30457143 L1.56857143,1.30457143 L1.56857143,4.70142857 L10.7082857,4.70142857 Z M10.7082857,5.71971429 L1.56857143,5.71971429 L1.56857143,9.24428571 L10.7082857,9.24428571 L10.7082857,5.71971429 Z M4.20171429,8.26714286 C3.76457143,8.26628571 3.41057143,7.91142857 3.41057143,7.47428571 C3.41057143,7.03714286 3.76457143,6.68228571 4.20171429,6.68228571 C4.638,6.68228571 4.99285714,7.03714286 4.99285714,7.47514286 C4.99285714,7.91228571 4.63885714,8.26714286 4.20171429,8.26714286 Z M8.15571429,8.26714286 C7.94571429,8.26714286 7.74428571,8.18314286 7.596,8.03485714 C7.44771429,7.88571429 7.36457143,7.68428571 7.36457143,7.47428571 C7.36457143,7.03714286 7.71857143,6.68228571 8.15571429,6.68228571 C8.59285714,6.68228571 8.94685714,7.03714286 8.94685714,7.47514286 C8.94685714,7.91228571 8.59285714,8.26628571 8.15571429,8.26714286 Z" id="Shape"></path>
        </g>
    </g>
</svg>