<?xml version="1.0" encoding="UTF-8"?>
<svg width="16px" height="16px" viewBox="0 0 16 16" version="1.1" xmlns="http://www.w3.org/2000/svg" xmlns:xlink="http://www.w3.org/1999/xlink">
    <!-- Generator: Sketch 52.3 (67297) - http://www.bohemiancoding.com/sketch -->
    <title>交通设施_图例</title>
    <desc>Created with Sketch.</desc>
    <g id="交通设施_图例" stroke="none" stroke-width="1" fill="none" fill-rule="evenodd">
        <circle id="Oval" class="svg-fill-color" fill-rule="nonzero" cx="8" cy="8" r="8"></circle>
        <g id="Graphic" transform="translate(2.850000, 3.000000)" fill="#FFFFFF" fill-rule="nonzero">
            <path d="M2.35214286,8.54 L0.535714286,8.54 L0.535714286,0.243571429 C0.812857143,0.24 0.998571429,0.237857143 1.095,0.237857143 L9.20214286,0.237857143 C9.30785714,0.237857143 9.49428571,0.24 9.76142857,0.243571429 L9.76142857,8.54 L8.01285714,8.54 L9.24142857,9.61285714 C9.26714286,9.63642857 9.27642857,9.67285714 9.26428571,9.70571429 C9.25214286,9.73857143 9.22142857,9.76071429 9.18642857,9.76214286 L7.96714286,9.76214286 L6.68142857,8.54 L3.71142857,8.54 L2.42642857,9.76214286 L1.17928571,9.76214286 C1.15071429,9.78714286 1.10857143,9.79071429 1.07642857,9.77 C1.04428571,9.74928571 1.02928571,9.71 1.04071429,9.67285714 C1.05214286,9.63642857 1.08642857,9.61214286 1.12428571,9.61285714 L2.35214286,8.54 Z M8.92357143,3.91785714 L8.92357143,1.08714286 L1.30714286,1.08714286 L1.30714286,3.91785714 L8.92357143,3.91785714 Z M8.92357143,4.76642857 L1.30714286,4.76642857 L1.30714286,7.70357143 L8.92357143,7.70357143 L8.92357143,4.76642857 Z M3.50142857,6.88928571 C3.13714286,6.88857143 2.84214286,6.59285714 2.84214286,6.22857143 C2.84214286,5.86428571 3.13714286,5.56857143 3.50142857,5.56857143 C3.865,5.56857143 4.16071429,5.86428571 4.16071429,6.22928571 C4.16071429,6.59357143 3.86571429,6.88928571 3.50142857,6.88928571 Z M6.79642857,6.88928571 C6.62142857,6.88928571 6.45357143,6.81928571 6.33,6.69571429 C6.20642857,6.57142857 6.13714286,6.40357143 6.13714286,6.22857143 C6.13714286,5.86428571 6.43214286,5.56857143 6.79642857,5.56857143 C7.16071429,5.56857143 7.45571429,5.86428571 7.45571429,6.22928571 C7.45571429,6.59357143 7.16071429,6.88857143 6.79642857,6.88928571 Z" id="Shape"></path>
        </g>
    </g>
</svg>