<?xml version="1.0" encoding="UTF-8"?>
<svg width="22px" height="28px" viewBox="0 0 22 28" version="1.1" xmlns="http://www.w3.org/2000/svg" xmlns:xlink="http://www.w3.org/1999/xlink">
    <!-- Generator: Sketch 52.3 (67297) - http://www.bohemiancoding.com/sketch -->
    <desc>Created with Sketch.</desc>
    <g id="ÌåÓýÐÝÏÐ_×ø±ê" stroke="none" stroke-width="1" fill="none" class="marker-icon" fill-rule="evenodd">
        <g id="Group-6" fill-rule="nonzero">
            <ellipse id="Oval-5" fill-opacity="0.203577899" fill="#000000" cx="11" cy="26.8135593" rx="3.82608696" ry="1.18644068"></ellipse>
            <ellipse id="Oval-5" fill-opacity="0.203577899" fill="#000000" cx="11" cy="26.8135593" rx="2.39130435" ry="1"></ellipse>
            <path d="M11.0050299,25.3436266 C11.108074,25.121409 11.2291861,24.88616 11.3704901,24.6392325 C12.3288758,22.9644614 13.9421948,21.3108155 16.3680296,19.780924 C16.4959055,19.7056348 16.6223962,19.6275 16.7613971,19.5378694 C16.8342058,19.494059 16.9000328,19.450161 16.9749507,19.3950743 C19.7882784,17.4688246 21.5,14.3114196 21.5,10.8687042 C21.5,5.14359667 16.8003017,0.5 11.0000472,0.5 C5.19971225,0.5 0.5,5.14358291 0.5,10.8687042 C0.5,14.6812691 2.60199103,18.1295095 5.95168467,19.963324 C8.23791376,21.4405917 9.76694442,23.0531959 10.6752294,24.6909467 C10.8015878,24.9187866 10.9109726,25.1367733 11.0050299,25.3436266 Z" id="Shape" stroke="#FFFFFF" class="svg-fill-color"></path>
        </g>
        <g id="Group-7" transform="translate(6.000000, 5.000000)" fill="#FFFFFF" fill-rule="nonzero">
            <path d="" id="Path-6"></path>
            <path d="M3.01465223,5.97263167 C2.97504024,6.28598828 2.67452384,6.50962242 2.34343006,6.4721325 C2.01233628,6.43464259 1.7760436,6.15022528 1.81565559,5.83686867 C1.97488879,4.57723042 2.40509599,3.64451879 3.13529438,3.06389149 C3.86389111,2.48453777 4.91347646,2.23820835 6.26499758,2.29322319 C6.59814453,2.30678422 7.2947686,2.54184307 7.28043996,2.85714286 C7.26611132,3.17244265 6.54625593,3.44858577 6.21310898,3.43502473 C5.13699851,3.39122073 4.37633745,3.56974189 3.91207295,3.93890819 C3.44941011,4.30680092 3.14059747,4.97632284 3.01465223,5.97263167 Z" id="Path-7"></path>
            <path d="M3.5127855,7.66723499 C3.63399484,7.78087134 3.77552239,7.8908955 3.93851045,7.99618167 C4.10221019,8.10192757 4.28578967,8.20164902 4.49013093,8.29488618 C4.07450371,9.12775217 3.67516048,9.71258706 3.275216,10.0580153 C2.82637814,10.4456723 2.08952933,11.0823527 1.06469368,11.9680359 C0.819944708,12.1795527 0.459993386,12.1420677 0.260719896,11.8843106 C0.0614464054,11.6265536 0.0983115641,11.2461319 0.343060532,11.034615 C1.36797897,10.1488604 2.10490073,9.51211689 2.55384993,9.12436374 C2.82707259,8.88838393 3.152489,8.39972659 3.5127855,7.66723499 Z M3.87159588,6.88294941 C3.87336073,6.87883218 3.87512621,6.87470979 3.87689231,6.87058223 C4.00708354,6.5663122 4.34569761,6.43020546 4.633208,6.56657931 C4.92071839,6.70295317 5.04825077,7.06016561 4.91805953,7.36443564 C4.88408022,7.44384872 4.85023917,7.52168432 4.81652795,7.59794674 C4.65759352,7.5242964 4.51649333,7.44708532 4.39234161,7.36688644 C4.1412704,7.20470078 3.97393609,7.04116746 3.87159588,6.88294941 Z" id="Combined-Shape"></path>
            <path d="M5.5706924,8.81906571 C5.69335269,9.07914819 5.99898868,9.44395955 6.48760365,9.8866601 C6.80876749,10.1776447 6.81988039,10.6599414 6.51242501,10.9639 C6.20496963,11.2678587 5.69537307,11.2783762 5.37420923,10.9873917 C4.74824621,10.4202495 4.32365634,9.91345312 4.1004429,9.44016297 C3.80893957,8.82207449 3.84854894,8.20944439 4.28769308,7.73491374 C4.77848644,7.20457195 5.66580037,6.5812183 6.97305177,5.83111706 C7.35324146,5.6129641 7.84830427,5.72780986 8.07880551,6.08763224 C8.30930675,6.44745463 8.18796028,6.91599622 7.80777059,7.13414918 C6.66260883,7.79124334 5.895561,8.32617078 5.52821726,8.70782747 C5.53431628,8.732319 5.54727421,8.76941101 5.5706924,8.81906571 Z" id="Path-7" transform="translate(6.054500, 8.459774) scale(-1, 1) rotate(6.000000) translate(-6.054500, -8.459774) "></path>
            <path d="M7.22734442,5.27338424 L7.8207605,4.0699001 C8.11215168,4.60863435 8.37369341,4.91467542 8.57022884,4.9891322 C8.7636041,5.06239177 8.99983564,4.93388906 9.33108995,4.41789257 C9.50212657,4.15146799 9.86387587,4.08675262 10.1390796,4.27334674 C10.4142834,4.45994086 10.4987276,4.82718507 10.327691,5.09360964 C9.74433641,6.00230393 9.02090356,6.39582922 8.20955892,6.08845402 C7.85670293,5.95477571 7.53369016,5.68294726 7.22734442,5.27338424 Z M6.97094088,4.89254576 C6.74790125,4.52763759 6.53211083,4.0856213 6.31804335,3.5666712 C6.19179147,3.26060685 6.3313567,2.92323155 6.62977102,2.81312238 C6.92818533,2.70301321 7.2724453,2.86186627 7.39869718,3.16793063 C7.46561924,3.33016552 7.53191787,3.48163948 7.59724458,3.6223635 L6.97094088,4.89254576 Z" id="Combined-Shape"></path>
            <path d="M5.49250175,2.25592204 L5.86667228,2.24738314 C6.36359917,2.23604284 6.77563114,2.62968855 6.78697145,3.12661544 C6.78728881,3.14052215 6.78728372,3.15443435 6.78695618,3.16834082 L6.7013006,6.80503644 C6.68997852,7.28574031 6.3027956,7.67263997 5.82208357,7.68361023 L5.44791304,7.69214913 C4.95098614,7.70348943 4.53895417,7.30984372 4.52761387,6.81291683 C4.5272965,6.79901012 4.5273016,6.78509792 4.52762914,6.77119145 L4.61328472,3.13449583 C4.6246068,2.65379196 5.01178972,2.2668923 5.49250175,2.25592204 Z" id="Rectangle" transform="translate(5.657293, 4.969766) rotate(26.000000) translate(-5.657293, -4.969766) "></path>
            <ellipse id="Oval" cx="7.44654088" cy="1.14285714" rx="1.20754717" ry="1.14285714"></ellipse>
        </g>
    </g>
</svg>