<?xml version="1.0" encoding="UTF-8"?>
<svg width="16px" height="16px" viewBox="0 0 16 16" version="1.1" xmlns="http://www.w3.org/2000/svg" xmlns:xlink="http://www.w3.org/1999/xlink">
    <!-- Generator: Sketch 52.3 (67297) - http://www.bohemiancoding.com/sketch -->
    <title>体育休闲_图例</title>
    <desc>Created with Sketch.</desc>
    <g id="体育休闲_图例" stroke="none" stroke-width="1" fill="none" fill-rule="evenodd">
        <circle id="Oval" class="svg-fill-color" fill-rule="nonzero" cx="8" cy="8" r="8"></circle>
        <g id="Group-7" transform="translate(3.500000, 3.000000)" fill="#FFFFFF" fill-rule="nonzero">
            <path d="" id="Path-6"></path>
            <path d="M2.51221019,4.97719306 C2.4792002,5.23832357 2.22876986,5.42468535 1.95285838,5.39344375 C1.6769469,5.36220216 1.48003634,5.12518773 1.51304633,4.86405722 C1.64574066,3.81435869 2.00424666,3.03709899 2.61274531,2.55324291 C3.21990926,2.07044814 4.09456371,1.86517363 5.22083132,1.91101932 C5.49845377,1.92232019 6.07897383,2.11820256 6.0670333,2.38095238 C6.05509276,2.64370221 5.45521327,2.87382148 5.17759082,2.86252061 C4.28083209,2.82601727 3.64694787,2.97478491 3.26006079,3.2824235 C2.87450843,3.58900077 2.61716456,4.1469357 2.51221019,4.97719306 Z" id="Path-7"></path>
            <path d="M2.92732125,6.38936249 C3.02832904,6.48405945 3.14626866,6.57574625 3.28209204,6.66348473 C3.41850849,6.75160631 3.57149139,6.83470752 3.74177577,6.91240515 C3.39541976,7.60646014 3.06263373,8.09382255 2.72934667,8.38167941 C2.35531511,8.70472691 1.74127444,9.23529395 0.88724473,9.97336321 C0.683287256,10.1496273 0.383327821,10.1183897 0.21726658,9.90359218 C0.0512053378,9.68879465 0.0819263034,9.37177659 0.285883777,9.19551253 C1.13998247,8.45738366 1.75408395,7.92676407 2.12820828,7.60363645 C2.35589382,7.40698661 2.62707417,6.99977216 2.92732125,6.38936249 Z M3.2263299,5.73579117 C3.22780061,5.73236015 3.22927184,5.72892483 3.23074359,5.72548519 C3.33923629,5.47192683 3.62141468,5.35850455 3.86100667,5.47214943 C4.10059866,5.58579431 4.20687564,5.88347134 4.09838294,6.1370297 C4.07006685,6.20320727 4.04186597,6.26807027 4.0137733,6.33162228 C3.88132793,6.270247 3.76374444,6.20590443 3.66028468,6.13907203 C3.45105867,6.00391731 3.31161341,5.86763955 3.2263299,5.73579117 Z" id="Combined-Shape"></path>
            <path d="M4.64224367,7.34922143 C4.74446057,7.56595683 4.99915724,7.86996629 5.40633638,8.23888342 C5.67397291,8.48137055 5.68323366,8.8832845 5.42702084,9.13658336 C5.17080802,9.38988222 4.74614422,9.39864686 4.47850769,9.15615973 C3.95687184,8.68354122 3.60304695,8.26121093 3.41703575,7.86680247 C3.1741163,7.35172874 3.20712412,6.84120366 3.57307757,6.44576145 C3.98207203,6.00380996 4.72150031,5.48434859 5.81087647,4.85926421 C6.12770122,4.67747008 6.54025356,4.77317488 6.73233792,5.07302687 C6.92442229,5.37287886 6.82330024,5.76333018 6.5064755,5.94512431 C5.55217403,6.49270279 4.9129675,6.93847565 4.60684772,7.25652289 C4.61193023,7.2769325 4.62272851,7.30784251 4.64224367,7.34922143 Z" id="Path-7" transform="translate(5.045417, 7.049812) scale(-1, 1) rotate(6.000000) translate(-5.045417, -7.049812) "></path>
            <path d="M6.02278702,4.39448687 L6.51730042,3.39158342 C6.7601264,3.84052862 6.97807784,4.09556285 7.14185737,4.15761017 C7.30300341,4.21865981 7.49986303,4.11157421 7.77590829,3.68157714 C7.91843881,3.45955666 8.21989656,3.40562718 8.44923304,3.56112228 C8.67856952,3.71661738 8.74893966,4.02265422 8.60640915,4.2446747 C8.12028034,5.00191994 7.51741963,5.32985768 6.8412991,5.07371168 C6.54725245,4.96231309 6.27807513,4.73578938 6.02278702,4.39448687 Z M5.8091174,4.07712147 C5.62325104,3.77303132 5.44342569,3.40468442 5.26503613,2.972226 C5.15982623,2.71717237 5.27613059,2.43602629 5.52480918,2.34426865 C5.77348777,2.25251101 6.06037108,2.38488856 6.16558098,2.63994219 C6.22134937,2.77513794 6.27659823,2.90136624 6.33103715,3.01863625 L5.8091174,4.07712147 Z" id="Combined-Shape"></path>
            <path d="M4.72024905,1.8766679 L4.76777933,1.87558322 C5.24574298,1.86467567 5.64205138,2.24329946 5.65295893,2.72126311 C5.65326418,2.73463912 5.65325929,2.74802041 5.65294424,2.7613962 L5.58778908,5.52770187 C5.57646699,6.00840574 5.18928407,6.39530539 4.70857204,6.40627566 L4.66104177,6.40736034 C4.18307812,6.41826789 3.78676971,6.0396441 3.77586217,5.56168045 C3.77555691,5.54830444 3.77556181,5.53492314 3.77587685,5.52154736 L3.84103202,2.75524169 C3.8523541,2.27453782 4.23953702,1.88763817 4.72024905,1.8766679 Z" id="Rectangle" transform="translate(4.714411, 4.141472) rotate(26.000000) translate(-4.714411, -4.141472) "></path>
            <ellipse id="Oval" cx="6.20545073" cy="0.952380952" rx="1.00628931" ry="1"></ellipse>
        </g>
    </g>
</svg>