<?xml version="1.0" encoding="UTF-8"?>
<svg width="16px" height="16px" viewBox="0 0 16 16" version="1.1" xmlns="http://www.w3.org/2000/svg" xmlns:xlink="http://www.w3.org/1999/xlink">
    <!-- Generator: Sketch 52.3 (67297) - http://www.bohemiancoding.com/sketch -->
    <title>Ò½ÁÆ±£½¡_Í¼Àý</title>
    <desc>Created with Sketch.</desc>
    <g id="Ò½ÁÆ±£½¡_Í¼Àý" stroke="none" stroke-width="1" fill="none" fill-rule="evenodd">
        <circle id="Oval" class="svg-fill-color" fill-rule="nonzero" cx="8" cy="8" r="8"></circle>
        <g id="Group-9" transform="translate(3.250000, 3.000000)" fill="#FFFFFF" fill-rule="nonzero">
            <rect id="Rectangle" x="4.15625" y="3.59394704" width="1.1875" height="3.45018916" rx="0.4"></rect>
            <path d="M6.53125,4.92380153 L6.53125,5.69051023 C6.53125,5.79637061 6.41732246,5.88218741 6.27678571,5.88218741 L3.22321429,5.88218741 C3.08267754,5.88218741 2.96875,5.79637061 2.96875,5.69051023 L2.96875,4.92380153 C2.96875,4.81794115 3.08267754,4.73212436 3.22321429,4.73212436 L6.27678571,4.73212436 C6.41732246,4.73212436 6.53125,4.81794115 6.53125,4.92380153 Z" id="Rectangle"></path>
            <path d="" id="Path-6"></path>
            <path d="M0.890625,2.71951402 L0.890625,7.89479775 L8.609375,7.89479775 L8.609375,2.71951402 L0.890625,2.71951402 Z M0,1.85696673 L9.5,1.85696673 L9.5,8.75734504 L0,8.75734504 L0,1.85696673 Z" id="Rectangle"></path>
            <path d="M4.77454527,-0.706903676 C4.77454527,-0.548113105 4.90746074,-0.419387914 5.07142027,-0.419387914 L4.77454527,-0.419387914 L4.77454527,-0.706903676 Z M4.77454527,-0.419387914 L3.68753534,-0.419387914 L3.68639223,-1.2819352 L5.07142027,-1.2819352 C5.39933934,-1.2819352 5.66517027,-1.02448482 5.66517027,-0.706903676 L5.66517027,2.88704336 C5.66517027,3.2046245 5.39933934,3.46207489 5.07142027,3.46207489 L3.69267934,3.46207489 L3.69267934,2.5995276 L4.77454527,2.5995276 L4.77454527,-0.419387914 Z M5.07142027,2.5995276 C4.90746074,2.5995276 4.77454527,2.72825279 4.77454527,2.88704336 L4.77454527,2.5995276 L5.07142027,2.5995276 Z M5.07142027,2.5995276 C4.90746074,2.5995276 4.77454527,2.72825279 4.77454527,2.88704336 L4.77454527,2.5995276 L5.07142027,2.5995276 Z M4.77454527,-0.419387914 L3.68753534,-0.419387914 L3.68639223,-1.2819352 L5.07142027,-1.2819352 C5.39933934,-1.2819352 5.66517027,-1.02448482 5.66517027,-0.706903676 L5.66517027,2.88704336 C5.66517027,3.2046245 5.39933934,3.46207489 5.07142027,3.46207489 L3.69267934,3.46207489 L3.69267934,2.5995276 L4.77454527,2.5995276 L4.77454527,-0.419387914 Z M4.77454527,-0.419387914 L4.77454527,-0.706903676 C4.77454527,-0.548113105 4.90746074,-0.419387914 5.07142027,-0.419387914 L4.77454527,-0.419387914 Z" id="Rectangle" transform="translate(4.675781, 1.090070) rotate(-90.000000) translate(-4.675781, -1.090070) "></path>
        </g>
    </g>
</svg>