<?xml version="1.0" encoding="UTF-8"?>
<svg width="22px" height="28px" viewBox="0 0 22 28" version="1.1" xmlns="http://www.w3.org/2000/svg" xmlns:xlink="http://www.w3.org/1999/xlink">
    <!-- Generator: Sketch 52.3 (67297) - http://www.bohemiancoding.com/sketch -->
    <desc>Created with Sketch.</desc>
    <g id="Ò½ÁÆ±£½¡_×ø±ê" stroke="none" stroke-width="1" fill="none" class="marker-icon" fill-rule="evenodd">
        <g id="Group-6" fill-rule="nonzero">
            <ellipse id="Oval-5" fill-opacity="0.203577899" fill="#000000" cx="11" cy="26.8135593" rx="3.82608696" ry="1.18644068"></ellipse>
            <ellipse id="Oval-5" fill-opacity="0.203577899" fill="#000000" cx="11" cy="26.8135593" rx="2.39130435" ry="1"></ellipse>
            <path d="M11.0050299,25.3436266 C11.108074,25.121409 11.2291861,24.88616 11.3704901,24.6392325 C12.3288758,22.9644614 13.9421948,21.3108155 16.3680296,19.780924 C16.4959055,19.7056348 16.6223962,19.6275 16.7613971,19.5378694 C16.8342058,19.494059 16.9000328,19.450161 16.9749507,19.3950743 C19.7882784,17.4688246 21.5,14.3114196 21.5,10.8687042 C21.5,5.14359667 16.8003017,0.5 11.0000472,0.5 C5.19971225,0.5 0.5,5.14358291 0.5,10.8687042 C0.5,14.6812691 2.60199103,18.1295095 5.95168467,19.963324 C8.23791376,21.4405917 9.76694442,23.0531959 10.6752294,24.6909467 C10.8015878,24.9187866 10.9109726,25.1367733 11.0050299,25.3436266 Z" id="Shape" stroke="#FFFFFF" class="svg-fill-color"></path>
        </g>
        <g id="Group-9" transform="translate(5.000000, 5.000000)" fill="#FFFFFF" fill-rule="nonzero">
            <rect id="Rectangle" x="5.21354167" y="4.50819672" width="1.48958333" height="4.32786885" rx="0.4"></rect>
            <path d="M8.19270833,6.17634754 L8.19270833,7.13809617 C8.19270833,7.27088595 8.04979922,7.37853333 7.8735119,7.37853333 L4.04315476,7.37853333 C3.86686744,7.37853333 3.72395833,7.27088595 3.72395833,7.13809617 L3.72395833,6.17634754 C3.72395833,6.04355776 3.86686744,5.93591038 4.04315476,5.93591038 L7.8735119,5.93591038 C8.04979922,5.93591038 8.19270833,6.04355776 8.19270833,6.17634754 Z" id="Rectangle"></path>
            <path d="" id="Path-6"></path>
            <path d="M1.1171875,3.41132021 L1.1171875,9.90312349 L10.7994792,9.90312349 L10.7994792,3.41132021 L1.1171875,3.41132021 Z M0,2.329353 L11.9166667,2.329353 L11.9166667,10.9850907 L0,10.9850907 L0,2.329353 Z" id="Rectangle"></path>
            <path d="M5.98912258,-0.88673005 C5.98912258,-0.687545386 6.15584987,-0.526074313 6.36151841,-0.526074313 L5.98912258,-0.526074313 L5.98912258,-0.88673005 Z M5.98912258,-0.526074313 L4.62559257,-0.526074313 L4.62415867,-1.60804153 L6.36151841,-1.60804153 C6.77285549,-1.60804153 7.10631008,-1.28509938 7.10631008,-0.88673005 L7.10631008,3.62146667 C7.10631008,4.019836 6.77285549,4.34277815 6.36151841,4.34277815 L4.63204514,4.34277815 L4.63204514,3.26081093 L5.98912258,3.26081093 L5.98912258,-0.526074313 Z M6.36151841,3.26081093 C6.15584987,3.26081093 5.98912258,3.42228201 5.98912258,3.62146667 L5.98912258,3.26081093 L6.36151841,3.26081093 Z M6.36151841,3.26081093 C6.15584987,3.26081093 5.98912258,3.42228201 5.98912258,3.62146667 L5.98912258,3.26081093 L6.36151841,3.26081093 Z M5.98912258,-0.526074313 L4.62559257,-0.526074313 L4.62415867,-1.60804153 L6.36151841,-1.60804153 C6.77285549,-1.60804153 7.10631008,-1.28509938 7.10631008,-0.88673005 L7.10631008,3.62146667 C7.10631008,4.019836 6.77285549,4.34277815 6.36151841,4.34277815 L4.63204514,4.34277815 L4.63204514,3.26081093 L5.98912258,3.26081093 L5.98912258,-0.526074313 Z M5.98912258,-0.526074313 L5.98912258,-0.88673005 C5.98912258,-0.687545386 6.15584987,-0.526074313 6.36151841,-0.526074313 L5.98912258,-0.526074313 Z" id="Rectangle" transform="translate(5.865234, 1.367368) rotate(-90.000000) translate(-5.865234, -1.367368) "></path>
        </g>
    </g>
</svg>