<?xml version="1.0" encoding="UTF-8"?>
<svg width="22px" height="28px" viewBox="0 0 22 28" version="1.1" xmlns="http://www.w3.org/2000/svg" xmlns:xlink="http://www.w3.org/1999/xlink">
    <!-- Generator: Sketch 52.3 (67297) - http://www.bohemiancoding.com/sketch -->
    <desc>Created with Sketch.</desc>
    <g id="商务住宅_坐标" stroke="none" stroke-width="1" fill="none" class="marker-icon" fill-rule="evenodd">
        <g id="Group-6" fill-rule="nonzero">
            <ellipse id="Oval-5" fill-opacity="0.203577899" fill="#000000" cx="11" cy="26.8135593" rx="3.82608696" ry="1.18644068"></ellipse>
            <ellipse id="Oval-5" fill-opacity="0.203577899" fill="#000000" cx="11" cy="26.8135593" rx="2.39130435" ry="1"></ellipse>
            <path d="M11.0050299,25.3436266 C11.108074,25.121409 11.2291861,24.88616 11.3704901,24.6392325 C12.3288758,22.9644614 13.9421948,21.3108155 16.3680296,19.780924 C16.4959055,19.7056348 16.6223962,19.6275 16.7613971,19.5378694 C16.8342058,19.494059 16.9000328,19.450161 16.9749507,19.3950743 C19.7882784,17.4688246 21.5,14.3114196 21.5,10.8687042 C21.5,5.14359667 16.8003017,0.5 11.0000472,0.5 C5.19971225,0.5 0.5,5.14358291 0.5,10.8687042 C0.5,14.6812691 2.60199103,18.1295095 5.95168467,19.963324 C8.23791376,21.4405917 9.76694442,23.0531959 10.6752294,24.6909467 C10.8015878,24.9187866 10.9109726,25.1367733 11.0050299,25.3436266 Z" id="Shape" stroke="#FFFFFF" class="svg-fill-color"></path>
        </g>
        <g id="Graphi1c" transform="translate(5.000000, 4.500000)" fill="#FFFFFF" fill-rule="nonzero">
            <path d="M2.25,5.58428571 L2.25,10.464 L3.95914286,10.464 L3.95914286,6.83142857 L8.01942857,6.83142857 L8.01942857,10.464 L9.71657143,10.464 L9.71657143,5.58685714 L5.96657143,1.86342857 L2.25,5.58428571 Z M1.17857143,6.65742857 L0.842571429,6.99342857 L0.0848571429,6.23571429 L5.96314286,0.350571429 L11.8902857,6.23485714 L11.1351429,6.99514286 L10.788,6.64971429 L10.788,11.5354286 L6.948,11.5354286 L6.948,7.90285714 L5.03057143,7.90285714 L5.03057143,11.5354286 L1.17857143,11.5354286 L1.17857143,6.65742857 Z" id="Shape"></path>
        </g>
    </g>
</svg>