<?xml version="1.0" encoding="UTF-8"?>
<svg width="22px" height="28px" viewBox="0 0 22 28" version="1.1" xmlns="http://www.w3.org/2000/svg" xmlns:xlink="http://www.w3.org/1999/xlink">
    <!-- Generator: Sketch 52.3 (67297) - http://www.bohemiancoding.com/sketch -->
    <desc>Created with Sketch.</desc>
    <g id="汽车服务_坐标" stroke="none" stroke-width="1" fill="none" class="marker-icon" fill-rule="evenodd">
        <g id="Group-6" fill-rule="nonzero">
            <ellipse id="Oval-5" fill-opacity="0.203577899" fill="#000000" cx="11" cy="26.8135593" rx="3.82608696" ry="1.18644068"></ellipse>
            <ellipse id="Oval-5" fill-opacity="0.203577899" fill="#000000" cx="11" cy="26.8135593" rx="2.39130435" ry="1"></ellipse>
            <path d="M11.0050299,25.3436266 C11.108074,25.121409 11.2291861,24.88616 11.3704901,24.6392325 C12.3288758,22.9644614 13.9421948,21.3108155 16.3680296,19.780924 C16.4959055,19.7056348 16.6223962,19.6275 16.7613971,19.5378694 C16.8342058,19.494059 16.9000328,19.450161 16.9749507,19.3950743 C19.7882784,17.4688246 21.5,14.3114196 21.5,10.8687042 C21.5,5.14359667 16.8003017,0.5 11.0000472,0.5 C5.19971225,0.5 0.5,5.14358291 0.5,10.8687042 C0.5,14.6812691 2.60199103,18.1295095 5.95168467,19.963324 C8.23791376,21.4405917 9.76694442,23.0531959 10.6752294,24.6909467 C10.8015878,24.9187866 10.9109726,25.1367733 11.0050299,25.3436266 Z" id="Shape" stroke="#FFFFFF" class="svg-fill-color"></path>
        </g>
        <g id="Group-3" transform="translate(4.500000, 6.500000)" fill="#FFFFFF" fill-rule="nonzero">
            <path d="M0,3.740625 L13.1178082,3.740625 L13.1178082,9.084375 L0,9.084375 L0,3.740625 Z M1.09315068,4.809375 L1.09315068,8.015625 L12.0246575,8.015625 L12.0246575,4.809375 L1.09315068,4.809375 Z" id="Path-3"></path>
            <polygon id="Path-4" points="3.29446962 1.06875 1.91859464 4.26666309 0.910958904 3.85227423 2.56836721 3.37507799e-14 10.6518949 3.37507799e-14 12.1431933 3.87111912 11.1201964 4.24781819 9.89550158 1.06875"></polygon>
            <polygon id="Path-5" points="11.2958904 3.06770833 11.2958904 1.959375 13.1272868 1.959375 13.1272868 3.06770833"></polygon>
            <polygon id="Path-5" points="-7.63833441e-14 3.06770833 -7.63833441e-14 1.959375 1.83139642 1.959375 1.83139642 3.06770833"></polygon>
            <path d="M9.4739726,8.728125 L10.9315068,8.728125 L10.9315068,9.60169393 C10.9315068,9.77842505 10.788238,9.92169393 10.6115068,9.92169393 L9.7939726,9.92169393 C9.61724148,9.92169393 9.4739726,9.77842505 9.4739726,9.60169393 L9.4739726,8.728125 Z" id="Path-5"></path>
            <path d="M2.18630137,8.728125 L3.64383562,8.728125 L3.64383562,9.60169393 C3.64383562,9.77842505 3.50056674,9.92169393 3.32383562,9.92169393 L2.50630137,9.92169393 C2.32957025,9.92169393 2.18630137,9.77842505 2.18630137,9.60169393 L2.18630137,8.728125 Z" id="Path-5"></path>
            <ellipse id="Oval" cx="3.55273973" cy="6.5015625" rx="1" ry="1"></ellipse>
            <ellipse id="Oval" cx="9.38287671" cy="6.5015625" rx="1" ry="1"></ellipse>
            <path d="M0,3.740625 L13.1178082,3.740625 L13.1178082,9.084375 L0,9.084375 L0,3.740625 Z M1.09315068,4.809375 L1.09315068,8.015625 L12.0246575,8.015625 L12.0246575,4.809375 L1.09315068,4.809375 Z" id="Path-3"></path>
            <polygon id="Path-4" points="3.29446962 1.06875 1.91859464 4.26666309 0.910958904 3.85227423 2.56836721 3.37507799e-14 10.6518949 3.37507799e-14 12.1431933 3.87111912 11.1201964 4.24781819 9.89550158 1.06875"></polygon>
            <polygon id="Path-5" points="11.2958904 3.06770833 11.2958904 1.959375 13.1272868 1.959375 13.1272868 3.06770833"></polygon>
            <polygon id="Path-5" points="-7.63833441e-14 3.06770833 -7.63833441e-14 1.959375 1.83139642 1.959375 1.83139642 3.06770833"></polygon>
            <path d="M9.4739726,8.728125 L10.9315068,8.728125 L10.9315068,9.60169393 C10.9315068,9.77842505 10.788238,9.92169393 10.6115068,9.92169393 L9.7939726,9.92169393 C9.61724148,9.92169393 9.4739726,9.77842505 9.4739726,9.60169393 L9.4739726,8.728125 Z" id="Path-5"></path>
            <path d="M2.18630137,8.728125 L3.64383562,8.728125 L3.64383562,9.60169393 C3.64383562,9.77842505 3.50056674,9.92169393 3.32383562,9.92169393 L2.50630137,9.92169393 C2.32957025,9.92169393 2.18630137,9.77842505 2.18630137,9.60169393 L2.18630137,8.728125 Z" id="Path-5"></path>
            <ellipse id="Oval" cx="3.55273973" cy="6.5015625" rx="1" ry="1"></ellipse>
            <ellipse id="Oval" cx="9.38287671" cy="6.5015625" rx="1" ry="1"></ellipse>
        </g>
    </g>
</svg>