<?xml version="1.0" encoding="UTF-8"?>
<svg width="16px" height="16px" viewBox="0 0 16 16" version="1.1" xmlns="http://www.w3.org/2000/svg" xmlns:xlink="http://www.w3.org/1999/xlink">
    <!-- Generator: Sketch 52.3 (67297) - http://www.bohemiancoding.com/sketch -->
    <title>汽车服务_图例</title>
    <desc>Created with Sketch.</desc>
    <g id="汽车服务_图例" stroke="none" stroke-width="1" fill="none" fill-rule="evenodd">
        <circle id="Oval" class="svg-fill-color" fill-rule="nonzero" cx="8" cy="8" r="8"></circle>
        <g id="Group-3" transform="translate(2.500000, 3.500000)" fill="#FFFFFF" fill-rule="nonzero">
            <path d="M0,3.05625 L10.7178082,3.05625 L10.7178082,7.42232143 L0,7.42232143 L0,3.05625 Z M0.893150685,3.92946429 L0.893150685,6.54910714 L9.82465753,6.54910714 L9.82465753,3.92946429 L0.893150685,3.92946429 Z" id="Path-3"></path>
            <polygon id="Path-4" points="2.69172204 0.873214286 1.56757356 3.48604553 0.744292237 3.14747218 2.09846544 3.37507799e-14 8.70305194 3.37507799e-14 9.9215063 3.16286926 9.08567423 3.47064845 8.0850464 0.873214286"></polygon>
            <polygon id="Path-5" points="9.22922374 2.60089286 9.22922374 1.60089286 10.7255527 1.60089286 10.7255527 2.60089286"></polygon>
            <polygon id="Path-5" points="-7.63833441e-14 2.60089286 -7.63833441e-14 1.60089286 1.49632891 1.60089286 1.49632891 2.60089286"></polygon>
            <path d="M7.74063927,7.13125 L8.93150685,7.13125 L8.93150685,7.81125 C8.93150685,7.98798112 8.78823797,8.13125 8.61150685,8.13125 L8.06063927,8.13125 C7.88390815,8.13125 7.74063927,7.98798112 7.74063927,7.81125 L7.74063927,7.13125 Z" id="Path-5"></path>
            <path d="M1.78630137,7.13125 L2.97716895,7.13125 L2.97716895,7.81125 C2.97716895,7.98798112 2.83390007,8.13125 2.65716895,8.13125 L2.10630137,8.13125 C1.92957025,8.13125 1.78630137,7.98798112 1.78630137,7.81125 L1.78630137,7.13125 Z" id="Path-5"></path>
            <ellipse id="Oval" cx="2.90273973" cy="5.31205357" rx="1" ry="1"></ellipse>
            <ellipse id="Oval" cx="7.66621005" cy="5.31205357" rx="1" ry="1"></ellipse>
            <path d="M0,3.05625 L10.7178082,3.05625 L10.7178082,7.42232143 L0,7.42232143 L0,3.05625 Z M0.893150685,3.92946429 L0.893150685,6.54910714 L9.82465753,6.54910714 L9.82465753,3.92946429 L0.893150685,3.92946429 Z" id="Path-3"></path>
            <polygon id="Path-4" points="2.69172204 0.873214286 1.56757356 3.48604553 0.744292237 3.14747218 2.09846544 3.37507799e-14 8.70305194 3.37507799e-14 9.9215063 3.16286926 9.08567423 3.47064845 8.0850464 0.873214286"></polygon>
            <polygon id="Path-5" points="9.22922374 2.60089286 9.22922374 1.60089286 10.7255527 1.60089286 10.7255527 2.60089286"></polygon>
            <polygon id="Path-5" points="-7.63833441e-14 2.60089286 -7.63833441e-14 1.60089286 1.49632891 1.60089286 1.49632891 2.60089286"></polygon>
            <path d="M7.74063927,7.13125 L8.93150685,7.13125 L8.93150685,7.81125 C8.93150685,7.98798112 8.78823797,8.13125 8.61150685,8.13125 L8.06063927,8.13125 C7.88390815,8.13125 7.74063927,7.98798112 7.74063927,7.81125 L7.74063927,7.13125 Z" id="Path-5"></path>
            <path d="M1.78630137,7.13125 L2.97716895,7.13125 L2.97716895,7.81125 C2.97716895,7.98798112 2.83390007,8.13125 2.65716895,8.13125 L2.10630137,8.13125 C1.92957025,8.13125 1.78630137,7.98798112 1.78630137,7.81125 L1.78630137,7.13125 Z" id="Path-5"></path>
            <ellipse id="Oval" cx="2.90273973" cy="5.31205357" rx="1" ry="1"></ellipse>
            <ellipse id="Oval" cx="7.66621005" cy="5.31205357" rx="1" ry="1"></ellipse>
        </g>
    </g>
</svg>