<?xml version="1.0" encoding="UTF-8"?>
<svg width="22px" height="28px" viewBox="0 0 22 28" version="1.1" xmlns="http://www.w3.org/2000/svg" xmlns:xlink="http://www.w3.org/1999/xlink">
    <!-- Generator: Sketch 52.3 (67297) - http://www.bohemiancoding.com/sketch -->
    <desc>Created with Sketch.</desc>
    <g id="科教文化_坐标" stroke="none" stroke-width="1" fill="none" class="marker-icon" fill-rule="evenodd">
        <g id="Group-6" fill-rule="nonzero">
            <ellipse id="Oval-5" fill-opacity="0.203577899" fill="#000000" cx="11" cy="26.8135593" rx="3.82608696" ry="1.18644068"></ellipse>
            <ellipse id="Oval-5" fill-opacity="0.203577899" fill="#000000" cx="11" cy="26.8135593" rx="2.39130435" ry="1"></ellipse>
            <path d="M11.0050299,25.3436266 C11.108074,25.121409 11.2291861,24.88616 11.3704901,24.6392325 C12.3288758,22.9644614 13.9421948,21.3108155 16.3680296,19.780924 C16.4959055,19.7056348 16.6223962,19.6275 16.7613971,19.5378694 C16.8342058,19.494059 16.9000328,19.450161 16.9749507,19.3950743 C19.7882784,17.4688246 21.5,14.3114196 21.5,10.8687042 C21.5,5.14359667 16.8003017,0.5 11.0000472,0.5 C5.19971225,0.5 0.5,5.14358291 0.5,10.8687042 C0.5,14.6812691 2.60199103,18.1295095 5.95168467,19.963324 C8.23791376,21.4405917 9.76694442,23.0531959 10.6752294,24.6909467 C10.8015878,24.9187866 10.9109726,25.1367733 11.0050299,25.3436266 Z" id="Shape" stroke="#FFFFFF" class="svg-fill-color"></path>
        </g>
        <g id="Group-5" transform="translate(3.750000, 2.000000)" fill="#FFFFFF" fill-rule="nonzero">
            <path d="" id="Path-6"></path>
            <path d="M3.95339017,4.07082274 L5.61841141,9.31427913 L10.933673,10.9568028 L9.26865174,5.71334644 L3.95339017,4.07082274 Z M2.44709859,2.33085577 L10.1498926,4.71117543 C10.2141259,4.73102484 10.2644314,4.78065065 10.2845526,4.84401599 L12.6974725,12.4427421 C12.7313959,12.5495729 12.6711064,12.663305 12.5628122,12.6967699 C12.522821,12.7091279 12.4799557,12.7091279 12.4399646,12.6967698 L4.73717059,10.3164501 C4.67293726,10.2966007 4.62263173,10.2469749 4.60251053,10.1836096 L2.18959061,2.58488348 C2.15566728,2.4780527 2.21595679,2.36432057 2.324251,2.33085566 C2.36424211,2.31849767 2.40710751,2.31849771 2.44709859,2.33085577 Z" id="Rectangle-Copy" transform="translate(7.443532, 7.513813) rotate(-45.000000) translate(-7.443532, -7.513813) "></path>
            <polygon id="Path-5" points="0.75 8 1.75 8 1.75 12 0.75 12"></polygon>
            <ellipse id="Oval" cx="1.22191781" cy="12.3108108" rx="1" ry="1"></ellipse>
            <polygon id="Path-9" points="10.4122 9.08978839 11.6450768 9.08978839 11.6450768 14.6634218 3.08219178 14.6634218 3.08219178 9.08978839 4.31506849 9.08978839 4.31506849 13.4472056 10.4122 13.4472056"></polygon>
        </g>
    </g>
</svg>