<?xml version="1.0" encoding="UTF-8"?>
<svg width="16px" height="16px" viewBox="0 0 16 16" version="1.1" xmlns="http://www.w3.org/2000/svg" xmlns:xlink="http://www.w3.org/1999/xlink">
    <!-- Generator: Sketch 52.3 (67297) - http://www.bohemiancoding.com/sketch -->
    <title>科教文化_图例</title>
    <desc>Created with Sketch.</desc>
    <g id="科教文化_图例" stroke="none" stroke-width="1" fill="none" fill-rule="evenodd">
        <circle id="Oval" class="svg-fill-color" fill-rule="nonzero" cx="8" cy="8" r="8"></circle>
        <g id="Group-5" transform="translate(2.000000, 0.000000)" fill="#FFFFFF" fill-rule="nonzero">
            <path d="" id="Path-6"></path>
            <path d="M3.22860197,3.32450524 L4.58836932,7.60666129 L8.92916627,8.94805565 L7.56939892,4.66589959 L3.22860197,3.32450524 Z M1.99846385,1.90353221 L8.28907893,3.84745994 C8.34153615,3.86367028 8.382619,3.90419803 8.39905131,3.95594639 L10.3696026,10.1615727 C10.3973066,10.2488178 10.3480702,10.3416991 10.2596299,10.3690288 C10.2269705,10.3791211 10.1919638,10.3791211 10.1593044,10.3690287 L3.86868931,8.42510095 C3.8162321,8.4088906 3.77514925,8.36836285 3.75871693,8.31661449 L1.78816566,2.11098818 C1.76046161,2.02374304 1.80969804,1.9308618 1.89813832,1.90353213 C1.93079772,1.89343977 1.96580446,1.8934398 1.99846385,1.90353221 Z" id="Rectangle-Copy" transform="translate(6.078884, 6.136280) rotate(-45.000000) translate(-6.078884, -6.136280) "></path>
            <polygon id="Path-5" points="0.6125 6.53333333 1.63333333 6.53333333 1.63333333 9.8 0.6125 9.8"></polygon>
            <ellipse id="Oval" cx="1.07956621" cy="10.0538288" rx="1" ry="1"></ellipse>
            <polygon id="Path-9" points="8.5032967 7.42332719 9.51014601 7.42332719 9.51014601 11.9751278 2.51712329 11.9751278 2.51712329 7.42332719 3.5239726 7.42332719 3.5239726 10.9818846 8.5032967 10.9818846"></polygon>
        </g>
    </g>
</svg>