<?xml version="1.0" encoding="UTF-8"?>
<svg width="16px" height="16px" viewBox="0 0 16 16" version="1.1" xmlns="http://www.w3.org/2000/svg" xmlns:xlink="http://www.w3.org/1999/xlink">
    <!-- Generator: Sketch 52.3 (67297) - http://www.bohemiancoding.com/sketch -->
    <title>购物服务_图例</title>
    <desc>Created with Sketch.</desc>
    <g id="购物服务_图例" stroke="none" stroke-width="1" fill="none" fill-rule="evenodd">
        <circle id="Oval" class="svg-fill-color" fill-rule="nonzero" cx="8" cy="8" r="8"></circle>
        <g id="Group-8" transform="translate(3.700000, 2.500000)" fill="#FFFFFF" fill-rule="nonzero">
            <path d="M0.189568101,2.76923077 L8.19610905,2.76923077 L8.38567715,9.89475661 L-1.77635684e-14,9.89475661 L0.189568101,2.76923077 Z M0.885403407,8.97167969 L7.50027374,8.97167969 L7.35982088,3.69230769 L1.02585627,3.69230769 L0.885403407,8.97167969 Z" id="Path"></path>
            <path d="M6.16688396,4.48527644 C6.16688396,4.7401771 5.9742555,4.9468149 5.73663625,4.9468149 C5.49901699,4.9468149 5.30638853,4.7401771 5.30638853,4.48527644 L5.30638853,2.17222936 C5.30638853,1.4858812 4.763787,0.923076923 4.08735332,0.923076923 C3.41091965,0.923076923 2.86831812,1.4858812 2.86831812,2.17222936 L2.86831812,4.48527644 C2.86831812,4.7401771 2.67568966,4.9468149 2.4380704,4.9468149 C2.20045115,4.9468149 2.00782269,4.7401771 2.00782269,4.48527644 L2.00782269,2.17222936 C2.00782269,0.969000528 2.94203939,-4.97379915e-14 4.08735332,-4.97379915e-14 C5.23266726,-4.97379915e-14 6.16688396,0.969000528 6.16688396,2.17222936 L6.16688396,4.48527644 Z" id="Oval"></path>
            <path d="" id="Path-6"></path>
        </g>
    </g>
</svg>