<?xml version="1.0" encoding="UTF-8"?>
<!DOCTYPE svg PUBLIC "-//W3C//DTD SVG 1.0//EN"
"http://www.w3.org/TR/2001/REC-SVG-20010904/DTD/svg10.dtd">
<svg width="22px" height="28px" viewBox="0 0 22 28" version="1.1" xmlns="http://www.w3.org/2000/svg" xmlns:xlink="http://www.w3.org/1999/xlink">
    <!-- Generator: Sketch 52.3 (67297) - http://www.bohemiancoding.com/sketch -->
    <desc>Created with Sketch.</desc>
    <g id="购物服务_坐标" stroke="none" stroke-width="1" fill="none" class="marker-icon" fill-rule="evenodd">
        <g id="Group-6" fill-rule="nonzero">
            <ellipse id="Oval-5" fill-opacity="0.203577899" fill="#000000" cx="11" cy="26.8135593" rx="3.82608696" ry="1.18644068"></ellipse>
            <ellipse id="Oval-5" fill-opacity="0.203577899" fill="#000000" cx="11" cy="26.8135593" rx="2.39130435" ry="1"></ellipse>
            <path d="M11.0050299,25.3436266 C11.108074,25.121409 11.2291861,24.88616 11.3704901,24.6392325 C12.3288758,22.9644614 13.9421948,21.3108155 16.3680296,19.780924 C16.4959055,19.7056348 16.6223962,19.6275 16.7613971,19.5378694 C16.8342058,19.494059 16.9000328,19.450161 16.9749507,19.3950743 C19.7882784,17.4688246 21.5,14.3114196 21.5,10.8687042 C21.5,5.14359667 16.8003017,0.5 11.0000472,0.5 C5.19971225,0.5 0.5,5.14358291 0.5,10.8687042 C0.5,14.6812691 2.60199103,18.1295095 5.95168467,19.963324 C8.23791376,21.4405917 9.76694442,23.0531959 10.6752294,24.6909467 C10.8015878,24.9187866 10.9109726,25.1367733 11.0050299,25.3436266 Z" id="Shape" stroke="#FFFFFF" class="svg-fill-color"></path>
        </g>
        <g id="Group-8" transform="translate(5.700000, 4.000000)" fill="#FFFFFF" fill-rule="nonzero">
            <path d="M0.246438531,3.6 L10.6549418,3.6 L10.9013803,12.8631836 L-1.77635684e-14,12.8631836 L0.246438531,3.6 Z M1.15102443,11.6631836 L9.75035587,11.6631836 L9.56776714,4.8 L1.33361315,4.8 L1.15102443,11.6631836 Z" id="Path"></path>
            <path d="M8.01694915,5.83085937 C8.01694915,6.16223022 7.76653215,6.43085937 7.45762712,6.43085937 C7.14872209,6.43085937 6.89830508,6.16223022 6.89830508,5.83085937 L6.89830508,2.82389817 C6.89830508,1.93164556 6.19292311,1.2 5.31355932,1.2 C4.43419554,1.2 3.72881356,1.93164556 3.72881356,2.82389817 L3.72881356,5.83085937 C3.72881356,6.16223022 3.47839655,6.43085937 3.16949153,6.43085937 C2.8605865,6.43085937 2.61016949,6.16223022 2.61016949,5.83085937 L2.61016949,2.82389817 C2.61016949,1.25970069 3.82465121,-4.97379915e-14 5.31355932,-4.97379915e-14 C6.80246743,-4.97379915e-14 8.01694915,1.25970069 8.01694915,2.82389817 L8.01694915,5.83085937 Z" id="Oval"></path>
            <path d="" id="Path-6"></path>
        </g>
    </g>
</svg>