<?xml version="1.0" encoding="UTF-8"?>
<svg width="22px" height="28px" viewBox="0 0 22 28" version="1.1" xmlns="http://www.w3.org/2000/svg" xmlns:xlink="http://www.w3.org/1999/xlink">
    <!-- Generator: Sketch 52.3 (67297) - http://www.bohemiancoding.com/sketch -->
    <desc>Created with Sketch.</desc>
    <g id="通用行业_坐标" stroke="none" stroke-width="1" fill="none" class="marker-icon" fill-rule="evenodd">
        <g id="Group-6" fill-rule="nonzero">
            <ellipse id="Oval-5" fill-opacity="0.203577899" fill="#000000" cx="11" cy="26.8135593" rx="3.82608696" ry="1.18644068"></ellipse>
            <ellipse id="Oval-5" fill-opacity="0.203577899" fill="#000000" cx="11" cy="26.8135593" rx="2.39130435" ry="1"></ellipse>
            <path d="M11.0050299,25.3436266 C11.108074,25.121409 11.2291861,24.88616 11.3704901,24.6392325 C12.3288758,22.9644614 13.9421948,21.3108155 16.3680296,19.780924 C16.4959055,19.7056348 16.6223962,19.6275 16.7613971,19.5378694 C16.8342058,19.494059 16.9000328,19.450161 16.9749507,19.3950743 C19.7882784,17.4688246 21.5,14.3114196 21.5,10.8687042 C21.5,5.14359667 16.8003017,0.5 11.0000472,0.5 C5.19971225,0.5 0.5,5.14358291 0.5,10.8687042 C0.5,14.6812691 2.60199103,18.1295095 5.95168467,19.963324 C8.23791376,21.4405917 9.76694442,23.0531959 10.6752294,24.6909467 C10.8015878,24.9187866 10.9109726,25.1367733 11.0050299,25.3436266 Z" id="Shape" class="svg-stroke-color" fill="#FFFFFF"></path>
        </g>
        <path d="M16.3571429,6 L5.64285714,6 L5.64285714,7.30612245 L16.3571429,7.30612245 L16.3571429,6 Z M17,12.6478343 L17,11.3082363 L16.3333561,7.95918367 L5.66666951,7.95918367 L5,11.3082363 L5,12.6478343 L5.66665672,12.6478343 L5.66665672,16.6666667 L12.3333134,16.6666667 L12.3333134,12.6478343 L15.000017,12.6478343 L15.000017,16.6666667 L16.3333433,16.6666667 L16.3333433,12.6478343 L17,12.6478343 Z M11,15.3605442 L6.92857143,15.3605442 L6.92857143,12.7482993 L11,12.7482993 L11,15.3605442 Z" id="Shape-Copy" class="svg-fill-color" fill-rule="nonzero"></path>
    </g>
</svg>