<?xml version="1.0" encoding="UTF-8"?>
<svg width="16px" height="16px" viewBox="0 0 16 16" version="1.1" xmlns="http://www.w3.org/2000/svg" xmlns:xlink="http://www.w3.org/1999/xlink">
    <!-- Generator: Sketch 52.3 (67297) - http://www.bohemiancoding.com/sketch -->
    <title>¾Æµê×¡ËÞ_Í¼Àý</title>
    <desc>Created with Sketch.</desc>
    <g id="¾Æµê×¡ËÞ_Í¼Àý" stroke="none" stroke-width="1" fill="none" fill-rule="evenodd">
        <circle id="Oval" class="svg-fill-color" fill-rule="nonzero" cx="8" cy="8" r="8"></circle>
        <g id="Â¥Óî" transform="translate(4.000000, 3.500000)" fill="#FFFFFF">
            <g id="Group-10" fill-rule="nonzero">
                <path d="M5.89406327,8.71829356 L0.241250705,8.71930747 C0.19779885,8.71930747 0.117381948,8.71971792 -1.52766688e-13,8.72053883 C-1.52766688e-13,8.5973157 -1.52766688e-13,8.5117356 -1.52766688e-13,8.46379853 L-1.20792553e-13,0.536758954 C-1.20792553e-13,0.491852396 -1.31450598e-13,0.406682744 -1.52766688e-13,0.28125 C0.114520541,0.28125 0.194937443,0.28125 0.241250705,0.28125 L5.382376,0.280236075 L5.625,0.280236075 L5.62362671,0.535745028 L5.62362671,8.46379853 C5.62362671,8.6037201 6.02617674,8.71829356 5.89406327,8.71829356 Z M0.84140253,7.8750558 L4.77297593,7.8750558 L4.77297593,1.12087967 L0.84140253,1.12087967 L0.84140253,7.8750558 Z" id="Shape"></path>
                <path d="M8.19254129,8.72053883 L5.02700265,8.72053883 C4.89218009,8.72053883 4.78257612,8.60510149 4.78257612,8.46310328 L4.78257612,1.73221944 C4.78257612,1.59022125 4.89218009,1.47478388 5.02700265,1.47478388 L8.19254129,1.47478388 C8.24236087,1.47478388 8.32401377,1.47478388 8.4375,1.47478388 C8.43714523,1.60421324 8.43696785,1.69002509 8.43696785,1.73221944 L8.43696785,8.46310328 C8.43662858,8.51277279 8.43662858,8.59858464 8.43696785,8.72053883 C8.31643163,8.72053883 8.2349561,8.72053883 8.19254129,8.72053883 Z M5.06382612,7.87561799 L7.59528636,7.87561799 L7.59528636,2.25530434 L5.06382612,2.25530434 L5.06382612,7.87561799 Z" id="Shape"></path>
            </g>
            <rect id="Rectangle" x="1.6875" y="2.25" width="1" height="1"></rect>
            <rect id="Rectangle-Copy-2" x="1.6875" y="3.65625" width="1" height="1"></rect>
            <rect id="Rectangle-Copy-4" x="1.6875" y="5.0625" width="1" height="1"></rect>
            <rect id="Rectangle-Copy" x="3.09375" y="2.25" width="1" height="1"></rect>
            <rect id="Rectangle-Copy-3" x="3.09375" y="3.65625" width="1" height="1"></rect>
            <rect id="Rectangle-Copy-5" x="3.09375" y="5.0625" width="1" height="1"></rect>
            <rect id="Rectangle-Copy-6" x="6.1875" y="3.09375" width="1" height="1"></rect>
            <rect id="Rectangle-Copy-7" x="6.1875" y="4.5" width="1" height="1"></rect>
        </g>
    </g>
</svg>