<?xml version="1.0" encoding="UTF-8"?>
<svg width="22px" height="28px" viewBox="0 0 22 28" version="1.1" xmlns="http://www.w3.org/2000/svg" xmlns:xlink="http://www.w3.org/1999/xlink">
    <!-- Generator: Sketch 52.3 (67297) - http://www.bohemiancoding.com/sketch -->
    <desc>Created with Sketch.</desc>
    <g id="¾Æµê×¡ËÞ_×ø±ê" stroke="none" stroke-width="1" fill="none"  class="marker-icon" fill-rule="evenodd">
        <g id="Group-6" fill-rule="nonzero">
            <ellipse id="Oval-5" fill-opacity="0.203577899" fill="#000000" cx="11" cy="26.8135593" rx="3.82608696" ry="1.18644068"></ellipse>
            <ellipse id="Oval-5" fill-opacity="0.203577899" fill="#000000" cx="11" cy="26.8135593" rx="2.39130435" ry="1"></ellipse>
            <path d="M11.0050299,25.3436266 C11.108074,25.121409 11.2291861,24.88616 11.3704901,24.6392325 C12.3288758,22.9644614 13.9421948,21.3108155 16.3680296,19.780924 C16.4959055,19.7056348 16.6223962,19.6275 16.7613971,19.5378694 C16.8342058,19.494059 16.9000328,19.450161 16.9749507,19.3950743 C19.7882784,17.4688246 21.5,14.3114196 21.5,10.8687042 C21.5,5.14359667 16.8003017,0.5 11.0000472,0.5 C5.19971225,0.5 0.5,5.14358291 0.5,10.8687042 C0.5,14.6812691 2.60199103,18.1295095 5.95168467,19.963324 C8.23791376,21.4405917 9.76694442,23.0531959 10.6752294,24.6909467 C10.8015878,24.9187866 10.9109726,25.1367733 11.0050299,25.3436266 Z" id="Shape" stroke="#FFFFFF" class="svg-fill-color"></path>
        </g>
        <g id="Â¥Óî" transform="translate(5.500000, 5.000000)" fill="#FFFFFF">
            <g id="Group-10" fill-rule="nonzero">
                <path d="M7.85875102,11.6243914 L0.321667607,11.6257433 C0.2637318,11.6257433 0.156509264,11.6262906 -1.52766688e-13,11.6273851 C-1.52766688e-13,11.4630876 -1.52766688e-13,11.3489808 -1.52766688e-13,11.2850647 L-1.10134507e-13,0.715678605 C-1.10134507e-13,0.655803195 -1.24345234e-13,0.542243659 -1.52766688e-13,0.375 C0.152694055,0.375 0.259916591,0.375 0.321667607,0.375 L7.17650134,0.373648101 L7.5,0.373648101 L7.49816895,0.714326704 L7.49816895,11.2850647 C7.49816895,11.4716268 8.03490232,11.6243914 7.85875102,11.6243914 Z M1.12187004,10.5000744 L6.36396791,10.5000744 L6.36396791,1.49450622 L1.12187004,1.49450622 L1.12187004,10.5000744 Z" id="Shape"></path>
                <path d="M10.9233884,11.6273851 L6.7026702,11.6273851 C6.52290679,11.6273851 6.37676816,11.4734687 6.37676816,11.2841377 L6.37676816,2.30962592 C6.37676816,2.120295 6.52290679,1.96637851 6.7026702,1.96637851 L10.9233884,1.96637851 C10.9898145,1.96637851 11.098685,1.96637851 11.25,1.96637851 C11.249527,2.13895098 11.2492905,2.25336678 11.2492905,2.30962592 L11.2492905,11.2841377 C11.2488381,11.3503637 11.2488381,11.4647795 11.2492905,11.6273851 C11.0885755,11.6273851 10.9799415,11.6273851 10.9233884,11.6273851 Z M6.75176816,10.500824 L10.1270485,10.500824 L10.1270485,3.00707245 L6.75176816,3.00707245 L6.75176816,10.500824 Z" id="Shape"></path>
            </g>
            <rect id="Rectangle" x="2.25" y="3" width="1.125" height="1.125"></rect>
            <rect id="Rectangle-Copy-2" x="2.25" y="4.875" width="1.125" height="1.125"></rect>
            <rect id="Rectangle-Copy-4" x="2.25" y="6.75" width="1.125" height="1.125"></rect>
            <rect id="Rectangle-Copy" x="4.125" y="3" width="1.125" height="1.125"></rect>
            <rect id="Rectangle-Copy-3" x="4.125" y="4.875" width="1.125" height="1.125"></rect>
            <rect id="Rectangle-Copy-5" x="4.125" y="6.75" width="1.125" height="1.125"></rect>
            <rect id="Rectangle-Copy-6" x="8.25" y="4.125" width="1.125" height="1.125"></rect>
            <rect id="Rectangle-Copy-7" x="8.25" y="6" width="1.125" height="1.125"></rect>
        </g>
    </g>
</svg>