<?xml version="1.0" encoding="UTF-8"?>
<svg width="22px" height="28px" viewBox="0 0 22 28" version="1.1" xmlns="http://www.w3.org/2000/svg" xmlns:xlink="http://www.w3.org/1999/xlink">
    <!-- Generator: Sketch 52.3 (67297) - http://www.bohemiancoding.com/sketch -->
    <desc>Created with Sketch.</desc>
    <g id="½ðÈÚ±£ÏÕ_×ø±ê" stroke="none" stroke-width="1" fill="none" class="marker-icon" fill-rule="evenodd">
        <g id="Group-6" fill-rule="nonzero">
            <ellipse id="Oval-5" fill-opacity="0.203577899" fill="#000000" cx="11" cy="26.8135593" rx="3.82608696" ry="1.18644068"></ellipse>
            <ellipse id="Oval-5" fill-opacity="0.203577899" fill="#000000" cx="11" cy="26.8135593" rx="2.39130435" ry="1"></ellipse>
            <path d="M11.0050299,25.3436266 C11.108074,25.121409 11.2291861,24.88616 11.3704901,24.6392325 C12.3288758,22.9644614 13.9421948,21.3108155 16.3680296,19.780924 C16.4959055,19.7056348 16.6223962,19.6275 16.7613971,19.5378694 C16.8342058,19.494059 16.9000328,19.450161 16.9749507,19.3950743 C19.7882784,17.4688246 21.5,14.3114196 21.5,10.8687042 C21.5,5.14359667 16.8003017,0.5 11.0000472,0.5 C5.19971225,0.5 0.5,5.14358291 0.5,10.8687042 C0.5,14.6812691 2.60199103,18.1295095 5.95168467,19.963324 C8.23791376,21.4405917 9.76694442,23.0531959 10.6752294,24.6909467 C10.8015878,24.9187866 10.9109726,25.1367733 11.0050299,25.3436266 Z" id="Shape" stroke="#FFFFFF" class="svg-fill-color"></path>
        </g>
        <g id="Group-10" transform="translate(6.000000, 5.000000)" fill="#FFFFFF" fill-rule="nonzero">
            <polygon id="Path-5" points="0 2.30625 1.16037736 2.30625 1.16037736 10.2396354 0 10.2396354"></polygon>
            <polygon id="Path-5" points="8.89622642 2.30625 10.0566038 2.30625 10.0566038 10.2396354 8.89622642 10.2396354"></polygon>
            <path d="" id="Path-6" stroke="#979797" stroke-width="0.5"></path>
            <path d="M10.086357,9.59190341 L8.92597968,9.59190341 C8.92597968,9.58298741 8.89637351,9.53371095 8.79017994,9.44820029 C8.62525824,9.31539974 8.35834437,9.18083978 8.01088338,9.0624997 C7.244217,8.80138446 6.18249385,8.6484375 5.04317852,8.6484375 C3.90386319,8.6484375 2.84214004,8.80138446 2.07547366,9.0624997 C1.72801267,9.18083978 1.4610988,9.31539974 1.2961771,9.44820029 C1.18998352,9.53371095 1.16037736,9.58298741 1.16037736,9.59190341 L1.77635684e-14,9.59190341 C1.77635684e-14,8.26640009 2.26400775,7.4953125 5.04317852,7.4953125 C7.82234929,7.4953125 10.086357,8.26640009 10.086357,9.59190341 Z" id="Oval" transform="translate(5.043179, 8.543608) rotate(180.000000) translate(-5.043179, -8.543608) "></path>
            <path d="M10.086357,12.2825284 L8.92597968,12.2825284 C8.92597968,12.2736124 8.89637351,12.224336 8.79017994,12.1388253 C8.62525824,12.0060247 8.35834437,11.8714648 8.01088338,11.7531247 C7.244217,11.4920095 6.18249385,11.3390625 5.04317852,11.3390625 C3.90386319,11.3390625 2.84214004,11.4920095 2.07547366,11.7531247 C1.72801267,11.8714648 1.4610988,12.0060247 1.2961771,12.1388253 C1.18998352,12.224336 1.16037736,12.2736124 1.16037736,12.2825284 L1.77635684e-14,12.2825284 C1.77635684e-14,10.9570251 2.26400775,10.1859375 5.04317852,10.1859375 C7.82234929,10.1859375 10.086357,10.9570251 10.086357,12.2825284 Z" id="Oval" transform="translate(5.043179, 11.234233) rotate(180.000000) translate(-5.043179, -11.234233) "></path>
            <path d="M10.086357,6.90127841 L8.92597968,6.90127841 C8.92597968,6.89236241 8.89637351,6.84308595 8.79017994,6.75757529 C8.62525824,6.62477474 8.35834437,6.49021478 8.01088338,6.3718747 C7.244217,6.11075946 6.18249385,5.9578125 5.04317852,5.9578125 C3.90386319,5.9578125 2.84214004,6.11075946 2.07547366,6.3718747 C1.72801267,6.49021478 1.4610988,6.62477474 1.2961771,6.75757529 C1.18998352,6.84308595 1.16037736,6.89236241 1.16037736,6.90127841 L1.77635684e-14,6.90127841 C1.77635684e-14,5.57577509 2.26400775,4.8046875 5.04317852,4.8046875 C7.82234929,4.8046875 10.086357,5.57577509 10.086357,6.90127841 Z" id="Oval" transform="translate(5.043179, 5.852983) rotate(180.000000) translate(-5.043179, -5.852983) "></path>
            <path d="M5.04317852,4.19318182 C2.26400775,4.19318182 1.77635684e-14,3.42209422 1.77635684e-14,2.09659091 C1.77635684e-14,0.771087594 2.26400775,8.70414851e-14 5.04317852,8.70414851e-14 C7.82234929,8.70414851e-14 10.086357,0.771087594 10.086357,2.09659091 C10.086357,3.42209422 7.82234929,4.19318182 5.04317852,4.19318182 Z M5.04317852,3.04005682 C6.18249385,3.04005682 7.244217,2.88710986 8.01088338,2.62599462 C8.35834437,2.50765454 8.62525824,2.37309458 8.79017994,2.24029403 C8.89637351,2.15478336 8.92597968,2.10550691 8.92597968,2.09659091 C8.92597968,2.08767491 8.89637351,2.03839845 8.79017994,1.95288779 C8.62525824,1.82008724 8.35834437,1.68552728 8.01088338,1.5671872 C7.244217,1.30607196 6.18249385,1.153125 5.04317852,1.153125 C3.90386319,1.153125 2.84214004,1.30607196 2.07547366,1.5671872 C1.72801267,1.68552728 1.4610988,1.82008724 1.2961771,1.95288779 C1.18998352,2.03839845 1.16037736,2.08767491 1.16037736,2.09659091 C1.16037736,2.10550691 1.18998352,2.15478336 1.2961771,2.24029403 C1.4610988,2.37309458 1.72801267,2.50765454 2.07547366,2.62599462 C2.84214004,2.88710986 3.90386319,3.04005682 5.04317852,3.04005682 Z" id="Oval"></path>
        </g>
    </g>
</svg>