<?xml version="1.0" encoding="UTF-8"?>
<svg width="16px" height="16px" viewBox="0 0 16 16" version="1.1" xmlns="http://www.w3.org/2000/svg" xmlns:xlink="http://www.w3.org/1999/xlink">
    <!-- Generator: Sketch 52.3 (67297) - http://www.bohemiancoding.com/sketch -->
    <title>金融保险_图例</title>
    <desc>Created with Sketch.</desc>
    <g id="金融保险_图例" stroke="none" stroke-width="1" fill="none" fill-rule="evenodd">
        <circle id="Oval" class="svg-fill-color" fill-rule="nonzero" cx="8" cy="8" r="8"></circle>
        <g id="Group-10" transform="translate(4.000000, 3.000000)" fill="#FFFFFF" fill-rule="nonzero">
            <polygon id="Path-5" points="0 1.875 1 1.875 1 8.32490682 0 8.32490682"></polygon>
            <polygon id="Path-5" points="6.94339623 1.875 7.94339623 1.875 7.94339623 8.32490682 6.94339623 8.32490682"></polygon>
            <path d="" id="Path-6" stroke="#979797" stroke-width="0.5"></path>
            <path d="M7.87227866,7.79829545 L6.96661829,7.79829545 C6.96661829,7.79104668 6.94351104,7.75098452 6.86062825,7.68146365 C6.73190887,7.57349572 6.52358585,7.46409738 6.25239679,7.36788594 C5.65402302,7.15559712 4.82536106,7.03125 3.93613933,7.03125 C3.04691761,7.03125 2.21825564,7.15559712 1.61988188,7.36788594 C1.34869281,7.46409738 1.14036979,7.57349572 1.01165042,7.68146365 C0.928767629,7.75098452 0.905660377,7.79104668 0.905660377,7.79829545 L1.77635684e-14,7.79829545 C1.77635684e-14,6.72065048 1.76703044,6.09375 3.93613933,6.09375 C6.10524822,6.09375 7.87227866,6.72065048 7.87227866,7.79829545 Z" id="Oval" transform="translate(3.936139, 6.946023) rotate(180.000000) translate(-3.936139, -6.946023) "></path>
            <path d="M7.87227866,9.98579545 L6.96661829,9.98579545 C6.96661829,9.97854668 6.94351104,9.93848452 6.86062825,9.86896365 C6.73190887,9.76099572 6.52358585,9.65159738 6.25239679,9.55538594 C5.65402302,9.34309712 4.82536106,9.21875 3.93613933,9.21875 C3.04691761,9.21875 2.21825564,9.34309712 1.61988188,9.55538594 C1.34869281,9.65159738 1.14036979,9.76099572 1.01165042,9.86896365 C0.928767629,9.93848452 0.905660377,9.97854668 0.905660377,9.98579545 L1.77635684e-14,9.98579545 C1.77635684e-14,8.90815048 1.76703044,8.28125 3.93613933,8.28125 C6.10524822,8.28125 7.87227866,8.90815048 7.87227866,9.98579545 Z" id="Oval" transform="translate(3.936139, 9.133523) rotate(180.000000) translate(-3.936139, -9.133523) "></path>
            <path d="M7.87227866,5.61079545 L6.96661829,5.61079545 C6.96661829,5.60354668 6.94351104,5.56348452 6.86062825,5.49396365 C6.73190887,5.38599572 6.52358585,5.27659738 6.25239679,5.18038594 C5.65402302,4.96809712 4.82536106,4.84375 3.93613933,4.84375 C3.04691761,4.84375 2.21825564,4.96809712 1.61988188,5.18038594 C1.34869281,5.27659738 1.14036979,5.38599572 1.01165042,5.49396365 C0.928767629,5.56348452 0.905660377,5.60354668 0.905660377,5.61079545 L1.77635684e-14,5.61079545 C1.77635684e-14,4.53315048 1.76703044,3.90625 3.93613933,3.90625 C6.10524822,3.90625 7.87227866,4.53315048 7.87227866,5.61079545 Z" id="Oval" transform="translate(3.936139, 4.758523) rotate(180.000000) translate(-3.936139, -4.758523) "></path>
            <path d="M3.93613933,3.40909091 C1.76703044,3.40909091 1.77635684e-14,2.78219043 1.77635684e-14,1.70454545 C1.77635684e-14,0.626900483 1.76703044,8.70414851e-14 3.93613933,8.70414851e-14 C6.10524822,8.70414851e-14 7.87227866,0.626900483 7.87227866,1.70454545 C7.87227866,2.78219043 6.10524822,3.40909091 3.93613933,3.40909091 Z M3.93613933,2.47159091 C4.82536106,2.47159091 5.65402302,2.34724379 6.25239679,2.13495497 C6.52358585,2.03874353 6.73190887,1.92934518 6.86062825,1.82137726 C6.94351104,1.75185639 6.96661829,1.71179423 6.96661829,1.70454545 C6.96661829,1.69729668 6.94351104,1.65723452 6.86062825,1.58771365 C6.73190887,1.47974572 6.52358585,1.37034738 6.25239679,1.27413594 C5.65402302,1.06184712 4.82536106,0.9375 3.93613933,0.9375 C3.04691761,0.9375 2.21825564,1.06184712 1.61988188,1.27413594 C1.34869281,1.37034738 1.14036979,1.47974572 1.01165042,1.58771365 C0.928767629,1.65723452 0.905660377,1.69729668 0.905660377,1.70454545 C0.905660377,1.71179423 0.928767629,1.75185639 1.01165042,1.82137726 C1.14036979,1.92934518 1.34869281,2.03874353 1.61988188,2.13495497 C2.21825564,2.34724379 3.04691761,2.47159091 3.93613933,2.47159091 Z" id="Oval"></path>
        </g>
    </g>
</svg>