<?xml version="1.0" encoding="UTF-8"?>
<svg width="22px" height="28px" viewBox="0 0 22 28" version="1.1" xmlns="http://www.w3.org/2000/svg" xmlns:xlink="http://www.w3.org/1999/xlink">
    <!-- Generator: Sketch 52.3 (67297) - http://www.bohemiancoding.com/sketch -->
    <desc>Created with Sketch.</desc>
    <g id="²ÍÒûÃÀÊ³_×ø±ê" stroke="none" stroke-width="1" fill="none" class="marker-icon" fill-rule="evenodd">
        <g id="Group-6" fill-rule="nonzero">
            <ellipse id="Oval-5" fill-opacity="0.203577899" fill="#000000" cx="11" cy="26.8135593" rx="3.82608696" ry="1.18644068"></ellipse>
            <ellipse id="Oval-5" fill-opacity="0.203577899" fill="#000000" cx="11" cy="26.8135593" rx="2.39130435" ry="1"></ellipse>
            <path d="M11.0050299,25.3436266 C11.108074,25.121409 11.2291861,24.88616 11.3704901,24.6392325 C12.3288758,22.9644614 13.9421948,21.3108155 16.3680296,19.780924 C16.4959055,19.7056348 16.6223962,19.6275 16.7613971,19.5378694 C16.8342058,19.494059 16.9000328,19.450161 16.9749507,19.3950743 C19.7882784,17.4688246 21.5,14.3114196 21.5,10.8687042 C21.5,5.14359667 16.8003017,0.5 11.0000472,0.5 C5.19971225,0.5 0.5,5.14358291 0.5,10.8687042 C0.5,14.6812691 2.60199103,18.1295095 5.95168467,19.963324 C8.23791376,21.4405917 9.76694442,23.0531959 10.6752294,24.6909467 C10.8015878,24.9187866 10.9109726,25.1367733 11.0050299,25.3436266 Z" id="Shape" stroke="#FFFFFF" class="svg-fill-color"></path>
        </g>
        <g id="Group-4" transform="translate(6.000000, 6.000000)" fill="#FFFFFF">
            <path d="M8.64478505,3.45635819 L7.89953561,3.45635819 L7.8995356,0 L7.16611552,0 L7.16611552,3.45635819 L6.43269544,3.45635819 L6.43269544,0 L5.69927536,0 L5.69927536,4.18717023 C5.69927536,4.55665986 6.02031226,4.85618729 6.41633545,4.85618729 L6.43269544,4.85618729 L8.64478505,4.85618729 L8.66114504,4.85618729 C9.05716823,4.85618729 9.37820513,4.55665986 9.37820513,4.18717023 L9.37820513,0 L8.64478505,0 L8.64478505,3.45635819 Z" id="Path"></path>
            <ellipse id="Oval" fill-rule="nonzero" cx="1.83946488" cy="2.45384615" rx="1.83946488" ry="2.45384615"></ellipse>
            <polygon id="Path-5" fill-rule="nonzero" points="6.98690078 4.33178711 8.09057971 4.33178711 8.09057971 10.9153846 6.98690078 10.9153846"></polygon>
            <polygon id="Path-5" fill-rule="nonzero" points="1.28762542 4.33178711 2.39130435 4.33178711 2.39130435 10.9153846 1.28762542 10.9153846"></polygon>
        </g>
    </g>
</svg>