<?xml version="1.0" encoding="UTF-8"?>
<svg width="16px" height="16px" viewBox="0 0 16 16" version="1.1" xmlns="http://www.w3.org/2000/svg" xmlns:xlink="http://www.w3.org/1999/xlink">
    <!-- Generator: Sketch 52.3 (67297) - http://www.bohemiancoding.com/sketch -->
    <title>餐饮美食_图例</title>
    <desc>Created with Sketch.</desc>
    <g id="餐饮美食_图例" stroke="none" stroke-width="1" fill="none" fill-rule="evenodd">
        <circle id="Oval" class="svg-fill-color" fill-rule="nonzero" cx="8" cy="8" r="8"></circle>
        <g id="Group-4" transform="translate(4.000000, 4.000000)" fill="#FFFFFF">
            <path d="M7.07300595,2.82792943 L6.46325641,2.82792943 L6.4632564,0 L5.86318543,0 L5.86318543,2.82792943 L5.26311445,2.82792943 L5.26311445,0 L4.66304348,0 L4.66304348,3.42586655 C4.66304348,3.72817625 4.92571003,3.97324415 5.249729,3.97324415 L5.26311445,3.97324415 L7.07300595,3.97324415 L7.0863914,3.97324415 C7.41041037,3.97324415 7.67307692,3.72817625 7.67307692,3.42586655 L7.67307692,0 L7.07300595,0 L7.07300595,2.82792943 Z" id="Path"></path>
            <ellipse id="Oval" fill-rule="nonzero" cx="1.50501672" cy="2.00769231" rx="1.50501672" ry="2.00769231"></ellipse>
            <polygon id="Path-5" fill-rule="nonzero" points="5.71655518 3.54418945 6.71655518 3.54418945 6.71655518 8.93076923 5.71655518 8.93076923"></polygon>
            <polygon id="Path-5" fill-rule="nonzero" points="1.05351171 3.54418945 2.05351171 3.54418945 2.05351171 8.93076923 1.05351171 8.93076923"></polygon>
        </g>
    </g>
</svg>