<?xml version="1.0" standalone="no"?><!DOCTYPE svg PUBLIC "-//W3C//DTD SVG 1.1//EN" "http://www.w3.org/Graphics/SVG/1.1/DTD/svg11.dtd"><svg t="1628493778972" class="icon" viewBox="0 0 1024 1024" version="1.1" xmlns="http://www.w3.org/2000/svg" p-id="5570" xmlns:xlink="http://www.w3.org/1999/xlink" width="16" height="16"><defs><style type="text/css"></style></defs><path d="M512 0C229.233778 0 0 229.233778 0 512s229.233778 512 512 512 512-229.233778 512-512S794.766222 0 512 0z m253.155556 349.866667l-272.497778 358.4a28.444444 28.444444 0 0 1-19.342222 10.808889h-3.413334a28.444444 28.444444 0 0 1-17.635555-6.257778l-188.302223-151.324445a28.529778 28.529778 0 1 1 35.84-44.373333l165.546667 133.12 254.862222-335.075556a28.444444 28.444444 0 1 1 44.942223 34.702223z" fill="#5FB105" p-id="5571"></path></svg>